<?xml version="1.0" encoding="UTF-8"?>
<!DOCTYPE svg PUBLIC "-//W3C//DTD SVG 1.1//EN" "http://www.w3.org/Graphics/SVG/1.1/DTD/svg11.dtd">
<svg xmlns="http://www.w3.org/2000/svg" version="1.1" width="512px" height="512px" style="shape-rendering:geometricPrecision; text-rendering:geometricPrecision; image-rendering:optimizeQuality; fill-rule:evenodd; clip-rule:evenodd" xmlns:xlink="http://www.w3.org/1999/xlink">
<g><path style="opacity:0.999" fill="#033c59" d="M 40.5,23.5 C 183.834,23.3333 327.167,23.5 470.5,24C 478.667,26.8333 484.167,32.3333 487,40.5C 487.667,183.833 487.667,327.167 487,470.5C 484.167,478.667 478.667,484.167 470.5,487C 327.167,487.667 183.833,487.667 40.5,487C 32.3333,484.167 26.8333,478.667 24,470.5C 23.3333,327.167 23.3333,183.833 24,40.5C 27.0191,32.3156 32.5191,26.649 40.5,23.5 Z"/></g>
<g><path style="opacity:1" fill="#0074fe" d="M 44.5,39.5 C 184.834,39.3333 325.167,39.5 465.5,40C 468.232,40.3981 470.065,41.8981 471,44.5C 471.5,74.8315 471.667,105.165 471.5,135.5C 327.5,135.5 183.5,135.5 39.5,135.5C 39.3334,105.165 39.5,74.8315 40,44.5C 41.025,42.313 42.525,40.6464 44.5,39.5 Z"/></g>
<g><path style="opacity:1" fill="#033c59" d="M 159.5,111.5 C 159.544,107.91 161.211,105.41 164.5,104C 206.167,103.667 247.833,103.333 289.5,103C 291.329,102.727 292.829,101.893 294,100.5C 295.568,92.5788 295.901,84.5788 295,76.5C 294.065,73.8981 292.232,72.3981 289.5,72C 254,71.8333 218.5,71.6667 183,71.5C 146.75,71.3393 110.583,71.8393 74.5,73C 73.2986,73.9025 72.4652,75.0692 72,76.5C 71.0991,84.5788 71.4325,92.5788 73,100.5C 73.9025,101.701 75.0692,102.535 76.5,103C 84.5767,103.098 92.5767,103.765 100.5,105C 102.451,106.734 103.451,108.901 103.5,111.5C 103.513,115.65 101.513,118.15 97.5,119C 89.5,119.667 81.5,119.667 73.5,119C 64.5992,115.765 58.7659,109.598 56,100.5C 55.3333,91.5 55.3333,82.5 56,73.5C 59.1667,65 65,59.1667 73.5,56C 109.833,55.8333 146.167,55.6667 182.5,55.5C 220.212,55.3455 257.879,55.8455 295.5,57C 303.089,60.255 308.256,65.755 311,73.5C 311.923,83.5745 311.59,93.5745 310,103.5C 306.674,111.493 300.841,116.659 292.5,119C 249.833,119.667 207.167,119.667 164.5,119C 161.292,117.563 159.625,115.063 159.5,111.5 Z"/></g>
<g><path style="opacity:1" fill="#f4f6fe" d="M 159.5,111.5 C 154.167,111.5 148.833,111.5 143.5,111.5C 143.451,108.901 142.451,106.734 140.5,105C 134.474,103.047 128.474,103.047 122.5,105C 120.549,106.734 119.549,108.901 119.5,111.5C 114.167,111.5 108.833,111.5 103.5,111.5C 103.451,108.901 102.451,106.734 100.5,105C 92.5767,103.765 84.5767,103.098 76.5,103C 75.0692,102.535 73.9025,101.701 73,100.5C 71.4325,92.5788 71.0991,84.5788 72,76.5C 72.4652,75.0692 73.2986,73.9025 74.5,73C 110.583,71.8393 146.75,71.3393 183,71.5C 218.5,71.6667 254,71.8333 289.5,72C 292.232,72.3981 294.065,73.8981 295,76.5C 295.901,84.5788 295.568,92.5788 294,100.5C 292.829,101.893 291.329,102.727 289.5,103C 247.833,103.333 206.167,103.667 164.5,104C 161.211,105.41 159.544,107.91 159.5,111.5 Z"/></g>
<g><path style="opacity:1" fill="#f1f4ff" d="M 338.5,71.5 C 354.678,71.1677 361.178,78.8344 358,94.5C 352.039,103.283 344.206,105.449 334.5,101C 324.083,89.5007 325.416,79.6674 338.5,71.5 Z"/></g>
<g><path style="opacity:1" fill="#f1f4ff" d="M 386.5,71.5 C 402.678,71.1677 409.178,78.8344 406,94.5C 400.039,103.283 392.206,105.449 382.5,101C 372.083,89.5007 373.416,79.6674 386.5,71.5 Z"/></g>
<g><path style="opacity:1" fill="#f1f4ff" d="M 434.5,71.5 C 450.678,71.1677 457.178,78.8344 454,94.5C 448.039,103.283 440.206,105.449 430.5,101C 420.083,89.5007 421.416,79.6674 434.5,71.5 Z"/></g>
<g><path style="opacity:1" fill="#073e5c" d="M 143.5,111.5 C 142.096,118.065 137.929,120.731 131,119.5C 124.377,120.619 120.543,117.953 119.5,111.5C 119.549,108.901 120.549,106.734 122.5,105C 128.474,103.047 134.474,103.047 140.5,105C 142.451,106.734 143.451,108.901 143.5,111.5 Z"/></g>
<g><path style="opacity:1" fill="#f4f6fe" d="M 439.5,151.5 C 439.667,238.834 439.5,326.167 439,413.5C 434.5,436.667 420.667,450.5 397.5,455C 353.331,455.831 309.331,455.665 265.5,454.5C 272.031,452.14 276.864,447.806 280,441.5C 281.903,431.239 284.07,421.072 286.5,411C 292.615,408.776 298.615,406.276 304.5,403.5C 312.674,408.753 320.674,414.253 328.5,420C 346.039,424.647 358.206,418.48 365,401.5C 365.667,396.833 365.667,392.167 365,387.5C 360.116,378.619 354.449,370.286 348,362.5C 350.074,355.619 352.574,348.786 355.5,342C 363.5,340.667 371.5,339.333 379.5,338C 393.411,334.416 400.078,325.416 399.5,311C 399.37,298.397 393.37,290.063 381.5,286C 372.523,284.282 363.523,282.782 354.5,281.5C 353.169,274.996 350.835,268.829 347.5,263C 351.927,255.571 356.76,248.404 362,241.5C 369.871,224.45 365.371,211.617 348.5,203C 340.515,200.498 332.848,201.165 325.5,205C 318.656,209.848 311.823,214.681 305,219.5C 298.994,216.609 292.827,214.109 286.5,212C 284.629,203.608 283.129,195.108 282,186.5C 277.756,173.123 268.59,166.789 254.5,167.5C 241.348,167.474 232.848,173.808 229,186.5C 227.5,194.834 226,203.167 224.5,211.5C 218.264,213.617 212.264,216.284 206.5,219.5C 199.028,214.528 191.695,209.361 184.5,204C 170.777,197.571 159.277,200.404 150,212.5C 144.595,219.802 143.262,227.802 146,236.5C 151.246,245.576 157.079,254.243 163.5,262.5C 160.005,268.49 157.338,274.823 155.5,281.5C 147.494,282.556 139.494,283.723 131.5,285C 118.284,288.381 111.617,296.881 111.5,310.5C 110.928,323.413 116.595,332.246 128.5,337C 137.478,338.774 146.478,340.441 155.5,342C 157.871,348.273 160.537,354.44 163.5,360.5C 156.322,369.522 150.156,379.189 145,389.5C 143.656,396.388 144.99,402.722 149,408.5C 159.377,422.502 172.211,425.335 187.5,417C 193.482,412.009 199.815,407.509 206.5,403.5C 212.297,406.488 218.297,408.988 224.5,411C 226.93,421.072 229.097,431.239 231,441.5C 234.132,447.802 238.966,452.136 245.5,454.5C 177.002,455.499 108.335,455.833 39.5,455.5C 39.5,354.167 39.5,252.833 39.5,151.5C 172.833,151.5 306.167,151.5 439.5,151.5 Z"/></g>
<g><path style="opacity:1" fill="#cbd2ea" d="M 439.5,151.5 C 450.167,151.5 460.833,151.5 471.5,151.5C 471.667,256.167 471.5,360.834 471,465.5C 470.727,467.329 469.893,468.829 468.5,470C 327.222,471.662 185.889,471.995 44.5,471C 41.8981,470.065 40.3981,468.232 40,465.5C 39.5017,462.183 39.335,458.85 39.5,455.5C 108.335,455.833 177.002,455.499 245.5,454.5C 252.123,455.755 258.79,455.755 265.5,454.5C 309.331,455.665 353.331,455.831 397.5,455C 420.667,450.5 434.5,436.667 439,413.5C 439.5,326.167 439.667,238.834 439.5,151.5 Z"/></g>
<g><path style="opacity:1" fill="#053d5b" d="M 265.5,454.5 C 258.79,455.755 252.123,455.755 245.5,454.5C 238.966,452.136 234.132,447.802 231,441.5C 229.097,431.239 226.93,421.072 224.5,411C 218.297,408.988 212.297,406.488 206.5,403.5C 199.815,407.509 193.482,412.009 187.5,417C 172.211,425.335 159.377,422.502 149,408.5C 144.99,402.722 143.656,396.388 145,389.5C 150.156,379.189 156.322,369.522 163.5,360.5C 160.537,354.44 157.871,348.273 155.5,342C 146.478,340.441 137.478,338.774 128.5,337C 116.595,332.246 110.928,323.413 111.5,310.5C 111.617,296.881 118.284,288.381 131.5,285C 139.494,283.723 147.494,282.556 155.5,281.5C 157.338,274.823 160.005,268.49 163.5,262.5C 157.079,254.243 151.246,245.576 146,236.5C 143.262,227.802 144.595,219.802 150,212.5C 159.277,200.404 170.777,197.571 184.5,204C 191.695,209.361 199.028,214.528 206.5,219.5C 212.264,216.284 218.264,213.617 224.5,211.5C 226,203.167 227.5,194.834 229,186.5C 232.848,173.808 241.348,167.474 254.5,167.5C 268.59,166.789 277.756,173.123 282,186.5C 283.129,195.108 284.629,203.608 286.5,212C 292.827,214.109 298.994,216.609 305,219.5C 311.823,214.681 318.656,209.848 325.5,205C 332.848,201.165 340.515,200.498 348.5,203C 365.371,211.617 369.871,224.45 362,241.5C 356.76,248.404 351.927,255.571 347.5,263C 350.835,268.829 353.169,274.996 354.5,281.5C 363.523,282.782 372.523,284.282 381.5,286C 393.37,290.063 399.37,298.397 399.5,311C 400.078,325.416 393.411,334.416 379.5,338C 371.5,339.333 363.5,340.667 355.5,342C 352.574,348.786 350.074,355.619 348,362.5C 354.449,370.286 360.116,378.619 365,387.5C 365.667,392.167 365.667,396.833 365,401.5C 358.206,418.48 346.039,424.647 328.5,420C 320.674,414.253 312.674,408.753 304.5,403.5C 298.615,406.276 292.615,408.776 286.5,411C 284.07,421.072 281.903,431.239 280,441.5C 276.864,447.806 272.031,452.14 265.5,454.5 Z"/></g>
<g><path style="opacity:1" fill="#0073fd" d="M 249.5,182.5 C 252.85,182.335 256.183,182.502 259.5,183C 261.939,183.774 263.773,185.274 265,187.5C 267.01,199.227 269.344,210.894 272,222.5C 272.833,223.333 273.667,224.167 274.5,225C 284.138,227.101 293.138,230.768 301.5,236C 305.12,236.841 308.454,236.174 311.5,234C 319.222,227.945 327.222,222.278 335.5,217C 345.198,217.03 349.698,221.863 349,231.5C 341.856,240.968 335.356,250.802 329.5,261C 334.625,271.089 338.792,281.589 342,292.5C 342.903,293.701 344.069,294.535 345.5,295C 356.395,297.538 367.395,299.538 378.5,301C 382.537,303.075 384.204,306.408 383.5,311C 384.105,316.125 382.105,319.792 377.5,322C 366.308,323.032 355.308,325.032 344.5,328C 342.951,329.214 341.785,330.714 341,332.5C 339.222,341.172 335.889,349.172 331,356.5C 329.85,358.754 329.516,361.087 330,363.5C 336.087,372.675 342.421,381.675 349,390.5C 349.667,393.167 349.667,395.833 349,398.5C 346.833,400.667 344.667,402.833 342.5,405C 339.833,405.667 337.167,405.667 334.5,405C 327.167,399.667 319.833,394.333 312.5,389C 310.1,387.299 307.433,386.466 304.5,386.5C 295.54,390.806 286.207,394.306 276.5,397C 273.943,397.685 272.109,399.185 271,401.5C 268.918,413.245 266.584,424.911 264,436.5C 261.521,438.917 258.521,439.917 255,439.5C 250.408,440.204 247.075,438.537 245,434.5C 243.667,425.833 242.333,417.167 241,408.5C 240.464,404.549 238.964,401.049 236.5,398C 225.818,394.572 215.318,390.738 205,386.5C 203.033,386.542 201.199,387.042 199.5,388C 191.778,394.055 183.778,399.722 175.5,405C 165.863,405.698 161.03,401.198 161,391.5C 167.725,382.44 174.058,373.107 180,363.5C 180.667,361.5 180.667,359.5 180,357.5C 175.157,348.971 171.491,339.971 169,330.5C 168.167,329.667 167.333,328.833 166.5,328C 154.917,325.347 143.25,323.013 131.5,321C 128.067,318.575 126.733,315.241 127.5,311C 126.733,306.759 128.067,303.425 131.5,301C 143.284,299.071 154.951,296.738 166.5,294C 167.333,293.167 168.167,292.333 169,291.5C 171.296,281.912 174.963,272.912 180,264.5C 180.755,261.697 180.422,259.03 179,256.5C 173.245,247.99 167.245,239.657 161,231.5C 159.639,224.723 162.139,219.89 168.5,217C 170.833,216.333 173.167,216.333 175.5,217C 184.831,224.343 194.664,230.843 205,236.5C 214.441,231.698 224.274,227.864 234.5,225C 237.102,224.065 238.602,222.232 239,219.5C 241.001,208.824 243.001,198.158 245,187.5C 246.366,185.638 247.866,183.972 249.5,182.5 Z"/></g>
<g><path style="opacity:1" fill="#053d5b" d="M 245.5,247.5 C 284.634,245.824 309.134,263.824 319,301.5C 321.732,329.865 311.232,351.699 287.5,367C 261.257,380.302 236.59,377.969 213.5,360C 188.315,334.186 184.815,305.686 203,274.5C 214.086,260.546 228.253,251.546 245.5,247.5 Z"/></g>
<g><path style="opacity:1" fill="#f3f6fe" d="M 246.5,263.5 C 275.621,261.797 294.454,274.797 303,302.5C 305.346,333.334 291.513,352.167 261.5,359C 231.588,360.092 213.754,345.925 208,316.5C 207.139,288.891 219.972,271.224 246.5,263.5 Z"/></g>
</svg>
