
<svg width="94" height="94" viewBox="0 0 94 94" fill="none" xmlns="http://www.w3.org/2000/svg">
<path d="M78.6926 28.2905H77.604C76.2592 28.2905 74.9912 28.9229 74.1715 29.9941L63.0288 44.6811L51.8861 29.9941C51.0664 28.9229 49.7985 28.2905 48.4537 28.2905H47.365L61.415 46.8106L47.0576 65.7179H48.1463C49.4911 65.7179 50.7591 65.0855 51.5787 64.0143L63.0288 48.9401L74.4789 64.0143C75.2986 65.0855 76.5665 65.7179 77.9113 65.7179H79L64.6426 46.8106L78.6926 28.2905ZM42.2676 58.284C39.0016 63.2915 32.5593 65.8598 26.3988 63.6013C20.9812 61.6138 17.5615 56.1803 17.5615 50.3726V48.9401H47.0192V43.6099C47.0192 35.2081 40.8459 27.8646 32.5465 27.0774C23.0304 26.1739 15 33.7239 15 43.1324V50.321C15 57.2515 19.1113 63.6916 25.592 66.0405C34.045 69.1121 42.9464 64.5305 45.9562 56.6708H45.1365C43.971 56.6708 42.9079 57.2903 42.2676 58.2711V58.284ZM17.5615 43.1324C17.5615 35.6598 23.594 29.5811 31.0096 29.5811C38.4253 29.5811 44.4577 35.6598 44.4577 43.1324V46.3589H17.5615V43.1324Z" fill="black"/>
</svg>
