<?xml version="1.0" encoding="UTF-8"?>
<!DOCTYPE svg PUBLIC "-//W3C//DTD SVG 1.1//EN" "http://www.w3.org/Graphics/SVG/1.1/DTD/svg11.dtd">
<svg xmlns="http://www.w3.org/2000/svg" version="1.1" width="512px" height="512px" style="shape-rendering:geometricPrecision; text-rendering:geometricPrecision; image-rendering:optimizeQuality; fill-rule:evenodd; clip-rule:evenodd" xmlns:xlink="http://www.w3.org/1999/xlink">
<g><path style="opacity:0.976" fill="#010203" d="M 319.5,67.5 C 319.062,71.1922 317.062,73.6922 313.5,75C 219.5,75.3333 125.5,75.6667 31.5,76C 23.3333,78.8333 17.8333,84.3333 15,92.5C 14.5001,110.164 14.3334,127.83 14.5,145.5C 160.833,145.5 307.167,145.5 453.5,145.5C 467.833,145.5 482.167,145.5 496.5,145.5C 496.667,127.83 496.5,110.164 496,92.5C 493.037,83.8677 487.203,78.3677 478.5,76C 470.173,75.5003 461.84,75.3336 453.5,75.5C 417.165,75.6667 380.832,75.5 344.5,75C 341.41,73.2926 339.41,70.7926 338.5,67.5C 339.179,63.9837 341.179,61.4837 344.5,60C 388.833,59.3333 433.167,59.3333 477.5,60C 494.898,62.9014 506.232,72.7347 511.5,89.5C 511.5,200.167 511.5,310.833 511.5,421.5C 506.232,438.265 494.898,448.099 477.5,451C 329.5,451.667 181.5,451.667 33.5,451C 16.0766,448.07 4.74322,438.237 -0.5,421.5C -0.5,310.833 -0.5,200.167 -0.5,89.5C 4.74322,72.7631 16.0766,62.9298 33.5,60C 127.167,59.3333 220.833,59.3333 314.5,60C 318.007,61.3296 319.673,63.8296 319.5,67.5 Z"/></g>
<g><path style="opacity:1" fill="#688dd4" d="M 319.5,67.5 C 325.833,67.5 332.167,67.5 338.5,67.5C 339.41,70.7926 341.41,73.2926 344.5,75C 380.832,75.5 417.165,75.6667 453.5,75.5C 453.5,98.8333 453.5,122.167 453.5,145.5C 307.167,145.5 160.833,145.5 14.5,145.5C 14.3334,127.83 14.5001,110.164 15,92.5C 17.8333,84.3333 23.3333,78.8333 31.5,76C 125.5,75.6667 219.5,75.3333 313.5,75C 317.062,73.6922 319.062,71.1922 319.5,67.5 Z"/></g>
<g><path style="opacity:1" fill="#3f72c7" d="M 453.5,75.5 C 461.84,75.3336 470.173,75.5003 478.5,76C 487.203,78.3677 493.037,83.8677 496,92.5C 496.5,110.164 496.667,127.83 496.5,145.5C 482.167,145.5 467.833,145.5 453.5,145.5C 453.5,122.167 453.5,98.8333 453.5,75.5 Z"/></g>
<g><path style="opacity:1" fill="#020305" d="M 59.5,96.5 C 73.8985,96.6193 79.0651,103.619 75,117.5C 69.8382,124.715 63.3382,126.215 55.5,122C 49.5288,116.965 48.0288,110.798 51,103.5C 53.4162,100.577 56.2496,98.2433 59.5,96.5 Z"/></g>
<g><path style="opacity:1" fill="#020305" d="M 101.5,96.5 C 116.785,96.928 121.951,104.261 117,118.5C 109.955,126.011 102.622,126.344 95,119.5C 89.9205,109.548 92.0871,101.881 101.5,96.5 Z"/></g>
<g><path style="opacity:1" fill="#030407" d="M 144.5,96.5 C 159.75,96.8992 164.917,104.233 160,118.5C 152.3,126.413 144.633,126.413 137,118.5C 132.399,108.709 134.899,101.375 144.5,96.5 Z"/></g>
<g><path style="opacity:1" fill="#dbe8f9" d="M 14.5,161.5 C 160.833,161.5 307.167,161.5 453.5,161.5C 453.667,229.501 453.5,297.501 453,365.5C 451.079,377.916 444.245,386.25 432.5,390.5C 435.709,387.109 437.876,383.109 439,378.5C 439.667,358.167 439.667,337.833 439,317.5C 437.167,310.333 432.667,305.833 425.5,304C 376.5,303.333 327.5,303.333 278.5,304C 272.667,305.833 268.833,309.667 267,315.5C 266.333,337.167 266.333,358.833 267,380.5C 268.416,385.364 271.249,389.03 275.5,391.5C 260.833,392.833 246.167,392.833 231.5,391.5C 236.671,389.154 239.838,385.154 241,379.5C 241.667,319.833 241.667,260.167 241,200.5C 238.921,194.753 235.088,190.586 229.5,188C 168.833,187.333 108.167,187.333 47.5,188C 41.9122,190.586 38.0789,194.753 36,200.5C 35.3333,236.167 35.3333,271.833 36,307.5C 36.8635,311.518 39.3635,313.518 43.5,313.5C 43.5,320.167 43.5,326.833 43.5,333.5C 40.2155,333.269 37.7155,334.603 36,337.5C 35.3333,351.5 35.3333,365.5 36,379.5C 37.1619,385.154 40.3286,389.154 45.5,391.5C 35.3468,392.494 25.0135,392.828 14.5,392.5C 14.5,315.5 14.5,238.5 14.5,161.5 Z"/></g>
<g><path style="opacity:1" fill="#cae1fe" d="M 14.5,161.5 C 174.999,160.5 335.666,160.167 496.5,160.5C 496.667,246.167 496.5,331.834 496,417.5C 493.474,426.693 487.64,432.526 478.5,435C 329.5,435.667 180.5,435.667 31.5,435C 24.0908,432.592 18.9241,427.758 16,420.5C 14.5828,411.248 14.0828,401.915 14.5,392.5C 25.0135,392.828 35.3468,392.494 45.5,391.5C 46.4734,391.987 47.4734,392.487 48.5,393C 107.833,393.667 167.167,393.667 226.5,393C 228.154,392.392 229.821,391.892 231.5,391.5C 246.167,392.833 260.833,392.833 275.5,391.5C 276.473,391.987 277.473,392.487 278.5,393C 306.167,393.667 333.833,393.667 361.5,393C 364.493,391.841 366.16,389.675 366.5,386.5C 373.167,386.5 379.833,386.5 386.5,386.5C 386.84,389.675 388.507,391.841 391.5,393C 403.167,393.667 414.833,393.667 426.5,393C 428.407,391.878 430.407,391.045 432.5,390.5C 444.245,386.25 451.079,377.916 453,365.5C 453.5,297.501 453.667,229.501 453.5,161.5C 307.167,161.5 160.833,161.5 14.5,161.5 Z"/></g>
<g><path style="opacity:1" fill="#030203" d="M 231.5,391.5 C 229.821,391.892 228.154,392.392 226.5,393C 167.167,393.667 107.833,393.667 48.5,393C 47.4734,392.487 46.4734,391.987 45.5,391.5C 40.3286,389.154 37.1619,385.154 36,379.5C 35.3333,365.5 35.3333,351.5 36,337.5C 37.7155,334.603 40.2155,333.269 43.5,333.5C 46.1955,333.933 48.3621,335.266 50,337.5C 50.1761,351.075 50.6761,364.575 51.5,378C 109.5,378.667 167.5,378.667 225.5,378C 226.165,348.904 226.498,319.738 226.5,290.5C 226.498,261.262 226.165,232.096 225.5,203C 167.5,202.333 109.5,202.333 51.5,203C 50.6702,237.762 50.1702,272.595 50,307.5C 49.2723,311.061 47.1057,313.061 43.5,313.5C 39.3635,313.518 36.8635,311.518 36,307.5C 35.3333,271.833 35.3333,236.167 36,200.5C 38.0789,194.753 41.9122,190.586 47.5,188C 108.167,187.333 168.833,187.333 229.5,188C 235.088,190.586 238.921,194.753 241,200.5C 241.667,260.167 241.667,319.833 241,379.5C 239.838,385.154 236.671,389.154 231.5,391.5 Z"/></g>
<g><path style="opacity:1" fill="#030304" d="M 278.5,187.5 C 299.169,187.333 319.836,187.5 340.5,188C 347.228,189.727 351.728,193.894 354,200.5C 354.667,221.833 354.667,243.167 354,264.5C 351.833,270.667 347.667,274.833 341.5,277C 320.5,277.667 299.5,277.667 278.5,277C 272.572,274.74 268.739,270.573 267,264.5C 266.333,242.833 266.333,221.167 267,199.5C 269.019,193.65 272.852,189.65 278.5,187.5 Z"/></g>
<g><path style="opacity:1" fill="#fa73c3" d="M 43.5,333.5 C 43.5,326.833 43.5,320.167 43.5,313.5C 47.1057,313.061 49.2723,311.061 50,307.5C 50.1702,272.595 50.6702,237.762 51.5,203C 109.5,202.333 167.5,202.333 225.5,203C 226.165,232.096 226.498,261.262 226.5,290.5C 226.498,319.738 226.165,348.904 225.5,378C 167.5,378.667 109.5,378.667 51.5,378C 50.6761,364.575 50.1761,351.075 50,337.5C 48.3621,335.266 46.1955,333.933 43.5,333.5 Z"/></g>
<g><path style="opacity:1" fill="#cae1fe" d="M 282.5,202.5 C 301.41,202.174 320.243,202.507 339,203.5C 339.826,223.073 339.659,242.573 338.5,262C 319.593,262.825 300.76,262.659 282,261.5C 281.18,241.76 281.347,222.093 282.5,202.5 Z"/></g>
<g><path style="opacity:1" fill="#09090a" d="M 374.5,207.5 C 390.17,207.333 405.837,207.5 421.5,208C 425.125,210.206 426.292,213.373 425,217.5C 423.891,219.815 422.057,221.315 419.5,222C 405.167,222.667 390.833,222.667 376.5,222C 369.452,217.987 368.785,213.154 374.5,207.5 Z"/></g>
<g><path style="opacity:1" fill="#09090a" d="M 374.5,239.5 C 395.503,239.333 416.503,239.5 437.5,240C 443.133,245.487 442.466,250.154 435.5,254C 415.833,254.667 396.167,254.667 376.5,254C 369.452,249.987 368.785,245.154 374.5,239.5 Z"/></g>
<g><path style="opacity:1" fill="#030102" d="M 112.5,246.5 C 116.247,246.392 119.914,246.892 123.5,248C 140.833,258 158.167,268 175.5,278C 184.773,282.987 186.939,290.153 182,299.5C 162.244,311.964 142.078,323.797 121.5,335C 112.536,337.437 106.702,334.27 104,325.5C 103.333,302.167 103.333,278.833 104,255.5C 105.688,251.315 108.521,248.315 112.5,246.5 Z"/></g>
<g><path style="opacity:1" fill="#da5aa0" d="M 118.5,262.5 C 134.806,271.988 151.139,281.488 167.5,291C 151.665,300.752 135.665,310.252 119.5,319.5C 118.5,300.512 118.167,281.512 118.5,262.5 Z"/></g>
<g><path style="opacity:1" fill="#040505" d="M 375.5,270.5 C 384.506,270.334 393.506,270.5 402.5,271C 409.167,275.667 409.167,280.333 402.5,285C 393.5,285.667 384.5,285.667 375.5,285C 368.899,280.171 368.899,275.338 375.5,270.5 Z"/></g>
<g><path style="opacity:1" fill="#030504" d="M 432.5,390.5 C 430.407,391.045 428.407,391.878 426.5,393C 414.833,393.667 403.167,393.667 391.5,393C 388.507,391.841 386.84,389.675 386.5,386.5C 386.544,382.91 388.211,380.41 391.5,379C 402.41,378.821 413.243,378.321 424,377.5C 424.667,358.167 424.667,338.833 424,319.5C 376.904,318.336 329.737,318.17 282.5,319C 281.341,338.427 281.174,357.927 282,377.5C 308.428,378.329 334.928,378.829 361.5,379C 365.007,380.33 366.673,382.83 366.5,386.5C 366.16,389.675 364.493,391.841 361.5,393C 333.833,393.667 306.167,393.667 278.5,393C 277.473,392.487 276.473,391.987 275.5,391.5C 271.249,389.03 268.416,385.364 267,380.5C 266.333,358.833 266.333,337.167 267,315.5C 268.833,309.667 272.667,305.833 278.5,304C 327.5,303.333 376.5,303.333 425.5,304C 432.667,305.833 437.167,310.333 439,317.5C 439.667,337.833 439.667,358.167 439,378.5C 437.876,383.109 435.709,387.109 432.5,390.5 Z"/></g>
<g><path style="opacity:1" fill="#85f0a6" d="M 386.5,386.5 C 379.833,386.5 373.167,386.5 366.5,386.5C 366.673,382.83 365.007,380.33 361.5,379C 334.928,378.829 308.428,378.329 282,377.5C 281.174,357.927 281.341,338.427 282.5,319C 329.737,318.17 376.904,318.336 424,319.5C 424.667,338.833 424.667,358.167 424,377.5C 413.243,378.321 402.41,378.821 391.5,379C 388.211,380.41 386.544,382.91 386.5,386.5 Z"/></g>
</svg>
