<svg width="94" height="94" viewBox="0 0 94 94" fill="none" xmlns="http://www.w3.org/2000/svg">
<path d="M77.7951 44.1477L49.8521 16.2047C48.2432 14.5958 45.6314 14.5958 44.0225 16.2047L38.2208 22.0064L45.5826 29.3683C47.296 28.7902 49.2531 29.1802 50.6182 30.5384C51.9903 31.9104 52.3734 33.8885 51.7813 35.6088L58.8785 42.706C60.5919 42.1139 62.5769 42.497 63.9489 43.8691C65.8643 45.7844 65.8643 48.8907 63.9489 50.8061C62.0336 52.7214 58.9273 52.7214 57.0119 50.8061C55.5702 49.3644 55.215 47.247 55.9463 45.471L49.3297 38.8544V56.2665C49.7964 56.4964 50.2351 56.8028 50.6252 57.1928C52.5405 59.1082 52.5405 62.2145 50.6252 64.1298C48.7098 66.0452 45.6035 66.0452 43.6882 64.1298C41.7728 62.2145 41.7728 59.1082 43.6882 57.1928C44.1618 56.7192 44.712 56.364 45.2971 56.1203V38.5479C44.712 38.3111 44.1688 37.9559 43.6882 37.4754C42.2395 36.0267 41.8913 33.8954 42.6295 32.1124L35.3722 24.855L16.2049 44.0153C14.596 45.6242 14.596 48.236 16.2049 49.8449L44.1479 77.7879C45.7567 79.3968 48.3686 79.3968 49.9774 77.7879L77.7881 49.9773C79.397 48.3684 79.397 45.7566 77.7881 44.1477H77.7951Z" fill="#F05133"/>
</svg>
