<svg width="94" height="94" viewBox="0 0 94 94" fill="none" xmlns="http://www.w3.org/2000/svg">
<path fill-rule="evenodd" clip-rule="evenodd" d="M51.9719 22.3347L65.1408 29.9329C65.5119 29.5404 65.9447 29.1936 66.4361 28.9084C69.167 27.3393 72.6506 28.2708 74.2377 31.0006C75.808 33.7296 74.8758 37.2107 72.144 38.7966C71.6567 39.077 71.1445 39.2772 70.6227 39.4022V54.6042C71.1381 54.7292 71.6447 54.9286 72.1272 55.2058C74.875 56.7909 75.8072 60.272 74.2209 63.0018C72.6506 65.7308 69.151 66.6623 66.4193 65.094C65.8758 64.7816 65.4029 64.3931 65.0077 63.9486L51.919 71.5003C52.1057 72.065 52.2075 72.6698 52.2075 73.2977C52.2075 76.436 49.6562 79.0016 46.4996 79.0016C43.343 79.0016 40.7917 76.452 40.7917 73.2977C40.7917 72.737 40.8726 72.1956 41.0225 71.6837L27.8568 64.0879C27.4897 64.4724 27.0625 64.8128 26.5791 65.0932C23.8314 66.6623 20.3478 65.7308 18.7775 63.001C17.2073 60.2712 18.1395 56.7909 20.8712 55.205C21.3537 54.9278 21.8603 54.7284 22.3757 54.6034V39.4014C21.8547 39.2764 21.3425 39.0762 20.8544 38.7958C18.1242 37.2267 17.192 33.7296 18.7623 30.9998C20.3326 28.2708 23.8322 27.3393 26.5639 28.9076C27.0529 29.1912 27.4841 29.5356 27.8528 29.9257L41.0257 22.3259C40.8742 21.8116 40.7925 21.2678 40.7925 20.7039C40.7925 17.5496 43.3438 15 46.5004 15C49.657 15 52.2083 17.5496 52.2083 20.7039C52.2083 21.271 52.1258 21.818 51.9727 22.3347H51.9719ZM50.5996 24.6752L63.8006 32.291C63.3926 33.7232 63.5424 35.3107 64.3432 36.7037C65.1464 38.1006 66.4561 39.0265 67.9086 39.387V54.6082C67.8348 54.6266 67.7611 54.6459 67.6873 54.6667L50.4465 24.8274C50.4986 24.7777 50.5499 24.7272 50.5996 24.6752ZM42.5567 24.8306L25.3167 54.6707C25.2421 54.6491 25.1668 54.629 25.0914 54.6106V39.3878C26.5439 39.0265 27.8536 38.1006 28.6568 36.7045C29.4592 35.3091 29.6082 33.7176 29.197 32.2838L42.394 24.6696C42.4469 24.7248 42.5014 24.7785 42.5567 24.8314V24.8306ZM48.0947 26.1826L65.3315 56.0156C64.946 56.3832 64.6061 56.8117 64.3272 57.2963C64.0498 57.7785 63.8502 58.2848 63.7252 58.7998H29.2756C29.1506 58.2848 28.951 57.7785 28.6736 57.2963C28.3939 56.8141 28.054 56.3888 27.6701 56.0228L44.9101 26.1842C45.4143 26.33 45.9481 26.4077 46.5004 26.4077C47.0527 26.4077 47.5889 26.3292 48.0955 26.1826H48.0947ZM50.7214 69.4538L63.8366 61.8868C63.7973 61.7635 63.7621 61.6385 63.7308 61.5128H29.2676C29.2491 61.5864 29.2299 61.6601 29.2083 61.7338L42.3876 69.3376C43.4256 68.2611 44.8828 67.5931 46.4996 67.5931C48.1164 67.5931 49.6778 68.31 50.7206 69.4546L50.7214 69.4538Z" fill="#E535AB"/>
</svg>
