<svg width="94" height="94" viewBox="0 0 94 94" fill="none" xmlns="http://www.w3.org/2000/svg">
<path d="M69 27.5775L64.9007 73.8525L46.4729 79L28.0961 73.8598L24 27.5775H69Z" fill="#E44D26"/>
<path d="M46.5 75.066L61.3904 70.9067L64.8935 31.3623H46.4992V75.0668L46.5 75.066Z" fill="#F16529"/>
<path d="M38.5306 42.7151H46.5V37.0383H32.3737L33.8932 54.2043H46.5V48.5283H39.0456L38.5306 42.7159V42.7151Z" fill="#EBEBEB"/>
<path d="M34.1448 57.0419L34.9344 65.9549L46.4745 69.1831L46.5008 69.1759V63.2697L46.4761 63.2761L40.2022 61.5694L39.801 57.0419H34.1448Z" fill="#EBEBEB"/>
<path d="M28.1869 15H31.05V17.8496H33.6688V15H36.5319V23.6307H33.6688V20.741H31.05V23.6307H28.1869V15Z" fill="black"/>
<path d="M40.2961 17.8617H37.776V15H45.6809V17.8617H43.1593V23.6299H40.2961V17.8617Z" fill="black"/>
<path d="M46.9354 15H49.9203L51.7567 18.0325L53.5914 15H56.5779V23.6307H53.7267V19.3526L51.7567 22.4212H51.7073L49.7365 19.3526V23.6307H46.9354V15Z" fill="black"/>
<path d="M58.0027 15H60.8667V20.7779H64.8927V23.6307H58.0027V15Z" fill="black"/>
<path d="M53.4179 54.2035L52.7636 61.5654L46.4801 63.2745V69.1799L58.029 65.9549L59.4371 50.0513L59.5748 48.5275H46.4801V54.2035H53.4179Z" fill="white"/>
<path d="M46.4809 42.7007V42.7143H60.0882L60.592 37.0375H46.4801V42.6999L46.4809 42.7007Z" fill="white"/>
</svg>
