<svg width="94" height="94" viewBox="0 0 94 94" fill="none" xmlns="http://www.w3.org/2000/svg">
<path d="M79 15H15V79H79V15Z" fill="#F7DF1E"/>
<path d="M57.9917 65.0003C59.2809 67.1051 60.9581 68.6523 63.9244 68.6523C66.4164 68.6523 68.0083 67.4069 68.0083 65.686C68.0083 63.6237 66.3727 62.8933 63.6298 61.6936L62.1263 61.0485C57.7865 59.1996 54.9035 56.8834 54.9035 51.9869C54.9035 47.4764 58.3402 44.0428 63.7111 44.0428C67.5349 44.0428 70.2838 45.3736 72.2648 48.858L67.5816 51.865C66.5505 50.0161 65.4381 49.2877 63.7111 49.2877C61.9841 49.2877 60.8331 50.4052 60.8331 51.865C60.8331 53.6692 61.9506 54.3996 64.5309 55.5171L66.0344 56.1611C71.1443 58.3524 74.0293 60.5863 74.0293 65.6088C74.0293 71.0234 69.7759 73.9897 64.0636 73.9897C58.3514 73.9897 54.87 71.3281 53.1044 67.8396L57.9917 65.0003ZM36.7468 65.5214C37.6916 67.1976 38.551 68.6147 40.6173 68.6147C42.6836 68.6147 43.8396 67.8417 43.8396 64.8357V44.3862H49.8536V64.917C49.8536 71.1443 46.2025 73.9785 40.8733 73.9785C36.058 73.9785 33.2695 71.4866 31.8513 68.4847L36.7468 65.5214Z" fill="black"/>
</svg>
