<svg width="94" height="94" viewBox="0 0 94 94" fill="none" xmlns="http://www.w3.org/2000/svg">
<path fill-rule="evenodd" clip-rule="evenodd" d="M51.8465 32.216L51.7824 15H42.1535L42.2177 32.216L47.0321 38.808L51.8465 32.216ZM42.2177 61.72V79H51.8465V61.72L47.0321 55.128L42.2177 61.72Z" fill="#F3F3F3"/>
<path fill-rule="evenodd" clip-rule="evenodd" d="M51.8465 61.72L61.989 75.672L69.7563 70.04L59.6138 56.088L51.8465 53.592V61.72ZM42.2177 32.216L32.011 18.264L24.2437 23.896L34.3862 37.848L42.2177 40.344V32.216Z" fill="#00F2E6"/>
<path fill-rule="evenodd" clip-rule="evenodd" d="M34.3862 37.848L17.9529 32.536L15 41.624L31.4333 47L39.2006 44.44L34.3862 37.848ZM54.7994 49.496L59.6138 56.088L76.0471 61.4L79 52.312L62.5667 47L54.7994 49.496Z" fill="#00B9F1"/>
<path fill-rule="evenodd" clip-rule="evenodd" d="M62.5667 47L79 41.624L76.0471 32.536L59.6138 37.848L54.7994 44.44L62.5667 47ZM31.4333 47L15 52.312L17.9529 61.4L34.3862 56.088L39.2006 49.496L31.4333 47Z" fill="#D63AFF"/>
<path fill-rule="evenodd" clip-rule="evenodd" d="M34.3862 56.088L24.2437 70.04L32.011 75.672L42.2177 61.72V53.592L34.3862 56.088ZM59.6138 37.848L69.7563 23.896L61.989 18.264L51.8465 32.216V40.344L59.6138 37.848Z" fill="#FB015B"/>
</svg>
