<svg width="94" height="94" viewBox="0 0 94 94" fill="none" xmlns="http://www.w3.org/2000/svg">
<path d="M44.904 15.0178C44.7664 15.0306 44.3288 15.0738 43.9344 15.105C34.844 15.9242 26.3296 20.8282 20.9368 28.3658C17.9344 32.557 16.0136 37.3106 15.288 42.3466C15.0312 44.1042 15 44.6234 15 47.0066C15 49.3898 15.0312 49.909 15.288 51.6666C17.0272 63.6826 25.5792 73.7786 37.1784 77.5194C39.2552 78.189 41.4448 78.645 43.9352 78.9202C44.9048 79.0266 49.0968 79.0266 50.0664 78.9202C54.364 78.445 58.0056 77.3818 61.5968 75.549C62.1472 75.2674 62.2536 75.1922 62.1784 75.1298C62.128 75.0922 59.7824 71.9458 56.9672 68.1426L51.8496 61.2306L45.4368 51.7418C41.908 46.525 39.0056 42.2586 38.9808 42.2586C38.956 42.2522 38.9304 46.4682 38.9184 51.6162C38.9 60.6298 38.8936 60.993 38.7808 61.2058C38.6184 61.5122 38.4928 61.6378 38.2304 61.7754C38.0304 61.8754 37.8552 61.8946 36.9104 61.8946H35.828L35.54 61.713C35.352 61.5938 35.2144 61.4378 35.1208 61.2562L34.9896 60.9746L35.0024 48.433L35.0208 35.885L35.2144 35.641C35.3144 35.5098 35.5272 35.341 35.6776 35.2594C35.9344 35.1346 36.0344 35.1218 37.1168 35.1218C38.3928 35.1218 38.6056 35.1722 38.9376 35.5346C39.0312 35.6346 42.5032 40.8642 46.6576 47.1626C50.812 53.4618 56.492 62.0626 59.2824 66.285L64.3496 73.9602L64.6064 73.7914C66.8776 72.3154 69.28 70.2138 71.1816 68.0242C75.2296 63.3762 77.8384 57.709 78.7136 51.6666C78.9704 49.909 79.0016 49.3898 79.0016 47.0066C79.0016 44.6234 78.9704 44.1042 78.7136 42.3466C76.9744 30.3306 68.4224 20.2346 56.8232 16.4938C54.7776 15.8306 52.6 15.3738 50.1608 15.0986C49.56 15.0362 45.4248 14.9674 44.9056 15.017L44.904 15.0178ZM58.0048 34.3706C58.3048 34.521 58.5488 34.8082 58.6368 35.109C58.6872 35.2714 58.6992 38.7498 58.6872 46.5874L58.6688 57.8346L56.6856 54.7946L54.696 51.7546V43.5794C54.696 38.2938 54.7208 35.3226 54.7584 35.1786C54.8584 34.8282 55.0776 34.553 55.3776 34.3906C55.6344 34.2594 55.728 34.2466 56.7104 34.2466C57.636 34.2466 57.7992 34.2594 58.0056 34.3714L58.0048 34.3706Z" fill="black"/>
</svg>
