<svg width="94" height="94" viewBox="0 0 94 94" fill="none" xmlns="http://www.w3.org/2000/svg">
<path d="M44.3832 15.6823C45.9679 14.7743 48.0325 14.7695 49.6157 15.6823C57.5821 20.1898 65.55 24.6893 73.5148 29.2001C75.0129 30.0454 76.0151 31.7142 75.9998 33.4433V60.5609C76.0111 62.3607 74.9102 64.0706 73.3294 64.8957C65.3895 69.3784 57.4537 73.8658 49.5154 78.3485C47.8977 79.2749 45.7922 79.2034 44.2251 78.2015C41.8443 76.8195 39.4604 75.4447 37.0796 74.0643C36.5933 73.7742 36.0445 73.5428 35.7011 73.0704C36.0044 72.6606 36.5476 72.6092 36.9889 72.4308C37.9823 72.1143 38.8955 71.6064 39.8078 71.1139C40.0389 70.9556 40.3206 71.0167 40.542 71.1581C42.5777 72.3264 44.595 73.5292 46.6371 74.687C47.0729 74.9385 47.5142 74.6042 47.8865 74.3969C55.6779 69.9874 63.479 65.5948 71.2688 61.1836C71.5577 61.0446 71.7174 60.7377 71.6933 60.4211C71.6989 51.4759 71.6949 42.5283 71.6957 33.5831C71.7286 33.224 71.5208 32.8937 71.1966 32.7467C63.284 28.2849 55.3762 23.816 47.4652 19.3526C47.1844 19.1598 46.8145 19.159 46.5336 19.351C38.6226 23.8152 30.7157 28.2882 22.8047 32.7499C22.4813 32.8969 22.2647 33.2224 22.3032 33.5823C22.3048 42.5275 22.3032 51.4751 22.3032 60.4219C22.2751 60.7385 22.4468 61.039 22.7333 61.1748C24.8444 62.3736 26.958 63.5636 29.0707 64.7583C30.2607 65.3995 31.7219 65.7812 33.033 65.2894C34.1901 64.874 35.0014 63.6913 34.9789 62.4612C34.9901 53.5682 34.9733 44.6736 34.9869 35.7815C34.958 35.3869 35.332 35.0607 35.7155 35.0977C36.7298 35.0905 37.7456 35.084 38.7599 35.1001C39.1835 35.0905 39.4748 35.5155 39.4227 35.9132C39.4186 44.8624 39.4339 53.8125 39.4154 62.7625C39.4178 65.148 38.4397 67.7433 36.2363 68.91C33.5217 70.3177 30.1668 70.0196 27.4852 68.6689C25.1638 67.5087 22.9483 66.1395 20.6679 64.8965C19.0847 64.0746 17.9886 62.3591 17.9998 60.5601V33.4425C17.983 31.6781 19.0253 29.9787 20.57 29.1455C28.5082 24.6596 36.4457 20.1705 44.3832 15.6823Z" fill="#8CC84B"/>
<path d="M51.3088 34.467C54.7712 34.2436 58.4776 34.3344 61.5933 36.0426C64.0054 37.3515 65.343 40.0986 65.3855 42.7822C65.3181 43.1438 64.9402 43.3439 64.5951 43.3189C63.5905 43.3173 62.5859 43.3326 61.5813 43.3117C61.1552 43.3278 60.9073 42.9349 60.8543 42.5572C60.5654 41.2733 59.8665 40.0014 58.6597 39.3827C56.8069 38.4538 54.6589 38.5004 52.6384 38.5197C51.1636 38.5985 49.578 38.7262 48.3278 39.5948C47.3689 40.2528 47.0769 41.5802 47.4195 42.6504C47.7421 43.4186 48.6279 43.6661 49.3517 43.8942C53.5243 44.987 57.9456 44.8785 62.0387 46.3159C63.7334 46.9025 65.3911 48.0418 65.9705 49.8183C66.7296 52.1991 66.3966 55.0458 64.7051 56.9573C63.3329 58.5305 61.3349 59.3862 59.3417 59.8515C56.6906 60.4436 53.9391 60.4581 51.2462 60.1953C48.7146 59.9061 46.0795 59.24 44.1256 57.5133C42.4542 56.0598 41.6381 53.7964 41.7192 51.6109C41.7384 51.2421 42.1051 50.9842 42.4582 51.0147C43.47 51.0067 44.4811 51.0035 45.4929 51.0163C45.8973 50.9874 46.1966 51.3369 46.2175 51.7186C46.4044 52.9423 46.8634 54.2263 47.9282 54.951C49.984 56.2792 52.5638 56.1884 54.918 56.2253C56.8687 56.1386 59.0577 56.1128 60.6497 54.8216C61.4898 54.0856 61.7386 52.8539 61.5115 51.7941C61.2659 50.8998 60.3311 50.4828 59.5287 50.2096C55.4099 48.9048 50.9389 49.378 46.8594 47.9028C45.2032 47.3171 43.6016 46.2091 42.9661 44.5049C42.0786 42.0936 42.4855 39.1111 44.3543 37.2647C46.1766 35.4271 48.8077 34.72 51.3088 34.467Z" fill="#8CC84B"/>
</svg>
