<svg width="94" height="94" viewBox="0 0 94 94" fill="none" xmlns="http://www.w3.org/2000/svg">
<path d="M46.9861 52.7619C50.1351 52.7619 52.688 50.1704 52.688 46.9736C52.688 43.7767 50.1351 41.1852 46.9861 41.1852C43.837 41.1852 41.2842 43.7767 41.2842 46.9736C41.2842 50.1704 43.837 52.7619 46.9861 52.7619Z" fill="black"/>
<path d="M78.9722 46.9736C78.9722 42.4276 73.7153 38.4746 65.538 36.1028C67.5963 27.7167 66.8731 21.1095 62.9791 18.8507C59.7527 16.9589 55.0522 18.3142 49.7675 22.6625C48.8496 23.4249 47.904 24.3002 46.9861 25.2037C46.0682 24.3002 45.1226 23.4249 44.2047 22.6625C38.92 18.2859 34.2195 16.9306 30.993 18.8507C27.7666 20.7425 26.5706 25.5426 27.6554 32.3756C27.8501 33.5898 28.1282 34.8321 28.4342 36.131C20.2568 38.5028 15 42.4558 15 47.0018C15 51.5478 20.2568 55.4725 28.4342 57.8726C28.1282 59.1432 27.8501 60.4138 27.6554 61.628C26.5706 68.461 27.7666 73.2611 30.993 75.1529C31.9387 75.7176 33.0235 76 34.2195 76C37.0565 76 40.4776 74.4188 44.2047 71.3411C45.1226 70.5787 46.0682 69.7034 46.9861 68.7999C47.904 69.7034 48.8496 70.5787 49.7675 71.3411C53.4946 74.4188 56.9157 76 59.7527 76C60.9487 76 62.0335 75.7176 62.9791 75.1529C66.2056 73.2611 67.4016 68.461 66.3446 61.628C66.1499 60.4138 65.8718 59.1714 65.5658 57.8726C73.7432 55.5008 79 51.5478 79 47.0018L78.9722 46.9736ZM51.5198 24.8367C54.7184 22.2107 57.5832 20.7989 59.6971 20.7989C60.3924 20.7989 61.0322 20.9401 61.5606 21.2789C64.0639 22.7472 64.6202 28.112 62.8123 35.3969C60.1977 34.7757 57.3329 34.3239 54.3012 34.0415C52.5489 31.5568 50.741 29.2415 48.9053 27.2367C49.7675 26.3896 50.6297 25.5708 51.492 24.8649L51.5198 24.8367ZM55.9144 52.1972C54.9131 53.9196 53.884 55.6137 52.827 57.1949C50.9635 57.3361 49.0165 57.4208 47.0139 57.4208C45.0113 57.4208 43.0643 57.3361 41.2008 57.1949C40.1439 55.6137 39.0869 53.9196 38.1134 52.1972C37.1121 50.4466 36.2221 48.7242 35.3877 46.9736C36.2221 45.2229 37.1121 43.5005 38.1134 41.7499C39.0869 40.0275 40.1439 38.3334 41.2008 36.7522C43.0643 36.611 45.0113 36.5263 47.0139 36.5263C49.0165 36.5263 50.9635 36.611 52.827 36.7522C53.884 38.3334 54.9409 40.0275 55.9144 41.7499C56.8879 43.4723 57.8057 45.2229 58.6402 46.9736C57.8335 48.6959 56.9435 50.4183 55.9144 52.1972ZM60.0865 50.2772C60.8653 52.169 61.5328 54.0043 62.0891 55.8114C60.309 56.2067 58.3898 56.5737 56.3594 56.8279C57.0269 55.7831 57.6667 54.7102 58.3064 53.609C58.9461 52.5078 59.5302 51.3783 60.0865 50.2772ZM46.9861 64.6774C45.7345 63.2939 44.4828 61.7691 43.259 60.1315C44.4828 60.1879 45.7066 60.2162 46.9861 60.2162C48.2655 60.2162 49.4894 60.1879 50.7132 60.1315C49.4894 61.7691 48.2377 63.2656 46.9861 64.6774ZM37.6128 56.8279C35.5824 56.5737 33.6632 56.2349 31.8831 55.8114C32.4394 54.0043 33.1069 52.169 33.8857 50.2772C34.442 51.3783 35.0261 52.5078 35.6658 53.609C36.3055 54.7102 36.9452 55.7831 37.6128 56.8279ZM33.8857 43.6417C33.1069 41.7499 32.4394 39.9146 31.8831 38.1075C33.6632 37.7122 35.5824 37.3451 37.6128 37.091C36.9452 38.1357 36.3055 39.2087 35.6658 40.3099C35.0261 41.4111 34.442 42.5123 33.8857 43.6417ZM46.9861 29.2415C48.2377 30.625 49.4894 32.1497 50.7132 33.7874C49.4894 33.731 48.2655 33.7027 46.9861 33.7027C45.7066 33.7027 44.4828 33.731 43.259 33.7874C44.4828 32.1497 45.7345 30.6532 46.9861 29.2415ZM58.3064 40.3381C57.6667 39.2369 57.0269 38.164 56.3594 37.1193C58.3898 37.3734 60.309 37.7122 62.0891 38.1357C61.5606 39.9146 60.8931 41.7499 60.0865 43.67C59.5302 42.5688 58.9183 41.4393 58.3064 40.3381ZM30.3811 31.9239C29.5189 26.4179 30.2421 22.5496 32.3837 21.3072C32.9122 20.9966 33.5519 20.8272 34.2473 20.8272C36.389 20.8272 39.2538 22.2107 42.4246 24.8649C43.2868 25.5708 44.1491 26.3896 45.0113 27.2367C43.1478 29.2697 41.3399 31.5568 39.6154 34.0698C36.5837 34.3521 33.7188 34.8039 31.1043 35.4251C30.7983 34.2392 30.548 33.0533 30.3811 31.9521V31.9239ZM17.7814 46.9736C17.7814 44.037 22.0648 40.8746 29.1851 38.8134C29.9917 41.4393 31.0487 44.1782 32.3003 46.9736C31.0487 49.7407 29.9917 52.4795 29.1851 55.1337C22.0926 53.0725 17.7814 49.9383 17.7814 46.9736ZM42.4524 69.0822C38.1969 72.5835 34.5254 73.8823 32.3837 72.6399C30.2421 71.3976 29.5189 67.501 30.3811 62.0233C30.548 60.8938 30.8262 59.7362 31.1043 58.5503C33.7188 59.1714 36.5837 59.6232 39.6154 59.9056C41.3677 62.3903 43.1756 64.7057 45.0113 66.7386C44.1491 67.5857 43.2868 68.4046 42.4246 69.1105L42.4524 69.0822ZM63.591 62.0233C64.4533 67.5292 63.7301 71.3976 61.5884 72.6399C59.4468 73.8823 55.7753 72.5835 51.5198 69.0822C50.6575 68.3763 49.7953 67.5575 48.9331 66.7104C50.7966 64.6774 52.6045 62.3903 54.329 59.9056C57.3607 59.6232 60.2256 59.1714 62.8401 58.5503C63.146 59.7362 63.3963 60.9221 63.5632 62.0233H63.591ZM64.787 55.1055C63.9804 52.4795 62.9235 49.7407 61.6719 46.9453C62.9513 44.1217 63.9804 41.3829 64.787 38.7852C71.9074 40.8464 76.1908 43.9806 76.1908 46.9453C76.1908 49.9101 71.9074 53.0443 64.787 55.1055Z" fill="black"/>
</svg>
