<svg width="64" height="64" viewBox="0 0 64 64" fill="none" xmlns="http://www.w3.org/2000/svg">
<path fill-rule="evenodd" clip-rule="evenodd" d="M32.0008 14.9788C24.5569 14.9788 19.9044 18.7496 18.0434 26.2914C20.8349 22.5205 24.1433 21.054 27.8653 21.9968C30.0364 22.5205 31.4839 24.0917 33.1381 25.8724C35.8262 28.7005 39.0312 31.9477 45.9583 31.9477C53.4022 31.9477 58.0547 28.1768 59.9157 20.6351C57.1242 24.4059 53.9192 25.7676 50.0938 24.9297C47.9227 24.4059 46.4752 22.8347 44.821 21.054C42.1329 18.2259 38.9279 14.9788 32.0008 14.9788ZM18.0434 31.9477C10.5994 31.9477 5.94693 35.7185 4.08594 43.2603C6.87743 39.4894 10.0825 38.0229 13.8045 39.0704C15.9756 39.5941 17.4231 41.1653 19.0773 42.946C21.7654 45.7742 24.9704 49.0213 31.8974 49.0213C39.3414 49.0213 43.9939 45.2504 45.8549 37.7087C43.0634 41.4796 39.8584 42.946 36.033 41.8986C33.8618 41.3748 32.4144 39.8036 30.7602 38.0229C28.1755 35.1948 24.9704 31.9477 18.0434 31.9477Z" fill="#38BDF8"/>
</svg>
