<svg width="94" height="94" viewBox="0 0 94 94" fill="none" xmlns="http://www.w3.org/2000/svg">
<path d="M15 47V15H79V79H15" fill="#007ACC"/>
<path d="M29.032 47.112V49.72H37.352V73.4H43.256V49.72H51.576V47.16C51.576 45.72 51.576 44.552 51.512 44.52C51.512 44.472 46.44 44.456 40.28 44.456L29.08 44.504V47.128L29.032 47.112ZM66.424 44.44C68.056 44.824 69.304 45.56 70.424 46.728C71.016 47.368 71.896 48.488 71.96 48.776C71.96 48.872 69.192 50.744 67.512 51.784C67.448 51.832 67.192 51.56 66.936 51.144C66.104 49.96 65.256 49.448 63.928 49.352C62.008 49.224 60.728 50.232 60.728 51.912C60.728 52.424 60.824 52.712 61.016 53.128C61.448 54.008 62.248 54.536 64.728 55.624C69.304 57.592 71.288 58.888 72.488 60.744C73.848 62.824 74.152 66.088 73.24 68.536C72.216 71.208 69.72 73.016 66.152 73.608C65.032 73.8 62.472 73.768 61.272 73.56C58.712 73.08 56.264 71.8 54.76 70.152C54.168 69.512 53.032 67.8 53.096 67.688L53.704 67.304L56.104 65.912L57.912 64.856L58.328 65.416C58.856 66.248 60.04 67.368 60.728 67.752C62.808 68.824 65.592 68.68 66.968 67.432C67.56 66.888 67.816 66.312 67.816 65.512C67.816 64.776 67.704 64.44 67.336 63.88C66.824 63.176 65.8 62.6 62.92 61.32C59.608 59.912 58.2 59.016 56.888 57.64C56.136 56.808 55.448 55.512 55.128 54.44C54.888 53.512 54.808 51.24 55.032 50.328C55.72 47.128 58.136 44.888 61.592 44.248C62.712 44.024 65.352 44.12 66.456 44.408L66.424 44.44Z" fill="white"/>
</svg>
