<svg width="24" height="24" viewBox="0 0 24 24" fill="none" xmlns="http://www.w3.org/2000/svg">
<path d="M21.9985 12.2288C21.9985 11.4979 21.9318 10.7985 21.8077 10.126H12.2109V13.9791L17.7379 13.9803C17.5137 15.2623 16.7923 16.3552 15.6869 17.0838V19.5836H18.9769C20.8979 17.8427 21.9985 15.2693 21.9985 12.2288Z" fill="#4285F4"/>
<path d="M15.6862 17.0832C14.7704 17.688 13.5911 18.0418 12.2114 18.0418C9.54628 18.0418 7.2854 16.2833 6.47573 13.9131H3.08203V16.4912C4.76338 19.7582 8.21909 22 12.2114 22C14.9707 22 17.2888 21.1114 18.9762 19.5819L15.6862 17.0832Z" fill="#34A853"/>
<path d="M6.16044 11.9986C6.16044 11.3331 6.27373 10.6898 6.48002 10.0849V7.50684H3.08632C2.39112 8.85776 2 10.3827 2 11.9986C2 13.6146 2.39231 15.1395 3.08632 16.4905L6.48002 13.9124C6.27373 13.3075 6.16044 12.6642 6.16044 11.9986Z" fill="#FABB05"/>
<path d="M12.2114 5.95821C13.7175 5.95821 15.0661 6.46612 16.131 7.45859L19.0465 4.60611C17.2757 2.9913 14.9671 2 12.2114 2C8.22028 2 4.76338 4.24182 3.08203 7.5088L6.47573 10.0869C7.2854 7.71664 9.54628 5.95821 12.2114 5.95821Z" fill="#E94235"/>
</svg>
